<svg height="512" width="512" xmlns="http://www.w3.org/2000/svg"><path d="M476.113 345.51a7.496 7.496 0 007.496-7.496V32.484C483.609 14.572 469.037 0 451.125 0H60.875C42.283 0 28.391 19.261 28.391 36.482v443.033c0 17.912 14.573 32.484 32.484 32.484h30.409a7.496 7.496 0 100-14.992H60.875c-9.645 0-17.492-7.847-17.492-17.492V36.482c0-9.673 8.071-21.49 17.492-21.49h306.839v482.014H125.541a7.496 7.496 0 100 14.992h325.584c17.912 0 32.484-14.572 32.484-32.484v-108.14a7.496 7.496 0 10-14.992 0v108.14c0 9.645-7.847 17.492-17.492 17.492h-68.418v-36.972h42.355a7.496 7.496 0 100-14.992h-42.355v-50.238h13.681a7.496 7.496 0 100-14.992h-13.681v-50.238h42.355a7.496 7.496 0 100-14.992h-42.355v-50.238h13.681a7.496 7.496 0 100-14.992h-13.681v-50.238h42.355a7.496 7.496 0 100-14.992h-42.355v-50.238h13.681a7.496 7.496 0 100-14.992h-13.681V68.653h49.851a7.496 7.496 0 100-14.992h-49.851V14.993h68.418c9.645 0 17.492 7.847 17.492 17.492v305.529a7.496 7.496 0 007.496 7.496z"/><path d="M180.399 261.05c-14.545 12.831-24.752 30.35-28.741 49.33l-4.485 21.34a294.339 294.339 0 00-6.28 60.417c0 8.654 7.041 15.695 15.696 15.695h78.365v9.863a7.496 7.496 0 1014.992 0v-9.863h78.365c8.653 0 15.694-7.015 15.696-15.638a294.377 294.377 0 00-6.28-60.475l-4.485-21.34c-3.979-18.925-14.145-36.408-28.625-49.225a17.169 17.169 0 01-3.851-20.823l15.514-29.765a101.66 101.66 0 0011.464-46.799v-23.25c0-5.977-3.476-11.521-8.856-14.128l-46.63-22.575a.704.704 0 01-.396-.632v-8.195c0-6.7-5.451-12.15-12.15-12.15h-9.764v-7.404c8.558-3.081 14.695-11.279 14.695-20.885 0-12.236-9.955-22.191-22.191-22.191s-22.191 9.954-22.191 22.191c0 9.606 6.137 17.804 14.695 20.885v7.404h-9.764c-6.7 0-12.15 5.451-12.15 12.15v8.195a.707.707 0 01-.397.632l-46.631 22.576c-5.379 2.606-8.855 8.15-8.855 14.127v23.25a101.29 101.29 0 003.779 27.407 7.497 7.497 0 0014.433-4.059 86.233 86.233 0 01-3.22-23.348v-23.25a.71.71 0 01.396-.633l46.629-22.575c5.381-2.604 8.857-8.149 8.857-14.127V97.83h28.837v5.353c0 5.978 3.476 11.523 8.857 14.127l46.628 22.574a.698.698 0 01.398.633v23.25a86.613 86.613 0 01-9.766 39.869l-15.514 29.765a32.139 32.139 0 007.209 38.979c12.085 10.697 20.57 25.288 23.89 41.084l4.485 21.339a279.271 279.271 0 015.96 57.387c0 .352-.322.649-.703.649H156.588a.704.704 0 01-.703-.703c0-19.228 2.005-38.517 5.96-57.332l4.485-21.341c3.329-15.84 11.847-30.462 23.986-41.171 11.045-9.743 13.97-25.737 7.113-38.892l-9.766-18.737a7.496 7.496 0 00-10.112-3.182 7.495 7.495 0 00-3.183 10.112l9.766 18.737c3.663 7.028 2.127 15.548-3.735 20.72zm62.051-213.7c3.969 0 7.198 3.229 7.198 7.198 0 3.97-3.229 7.199-7.198 7.199s-7.198-3.229-7.198-7.199c0-3.969 3.229-7.198 7.198-7.198zM82.047 369.185a7.496 7.496 0 10-10.601 10.602l18.536 18.536c1.464 1.463 3.382 2.195 5.301 2.195s3.837-.732 5.301-2.195l18.536-18.536a7.496 7.496 0 10-10.601-10.602l-5.739 5.739V71.985l5.739 5.739c1.464 1.463 3.382 2.195 5.301 2.195s3.837-.732 5.301-2.195a7.496 7.496 0 000-10.602l-18.536-18.536a7.499 7.499 0 00-10.601 0L71.445 67.122a7.496 7.496 0 1010.601 10.602l5.739-5.739v302.939z"/><path d="M309.628 472.377c1.464 1.463 3.382 2.195 5.301 2.195s3.837-.732 5.301-2.195l18.536-18.536a7.496 7.496 0 000-10.602l-18.536-18.536a7.496 7.496 0 10-10.601 10.602l5.739 5.738H171.783l5.739-5.738a7.496 7.496 0 10-10.601-10.602l-18.536 18.536a7.496 7.496 0 000 10.602l18.536 18.536c1.464 1.463 3.382 2.195 5.301 2.195s3.837-.732 5.301-2.195a7.496 7.496 0 000-10.602l-5.739-5.738h143.583l-5.739 5.738a7.496 7.496 0 000 10.602z"/></svg>