<svg width="20" height="20" fill="none" xmlns="http://www.w3.org/2000/svg"><circle cx="10" cy="10" r="9.5" fill="#E0E0E0" stroke="#000"/><g clip-path="url(#clip0)" fill="#000"><path d="M14.99 7.94c-.023-.531-.11-.897-.232-1.213a2.441 2.441 0 00-.578-.887 2.462 2.462 0 00-.886-.576c-.318-.123-.681-.21-1.213-.233-.535-.025-.705-.031-2.063-.031-1.357 0-1.527.006-2.06.03-.532.023-.897.109-1.213.232a2.44 2.44 0 00-.887.578c-.254.25-.452.553-.577.885-.123.318-.209.682-.232 1.213-.026.535-.031.705-.031 2.063s.005 1.528.029 2.06c.023.532.11.898.232 1.214.127.336.325.637.579.887.25.254.552.451.885.576.318.123.681.21 1.213.233.533.023.703.029 2.06.029 1.358 0 1.528-.006 2.062-.03.53-.023.896-.109 1.213-.232a2.558 2.558 0 001.463-1.463c.123-.318.209-.682.232-1.213.024-.533.03-.703.03-2.061s-.002-1.528-.026-2.061zm-.9 4.083c-.022.488-.104.752-.172.928a1.659 1.659 0 01-.95.95c-.175.068-.441.15-.928.171-.527.024-.685.03-2.02.03-1.334 0-1.494-.006-2.02-.03-.488-.021-.752-.103-.927-.172a1.539 1.539 0 01-.575-.373 1.556 1.556 0 01-.373-.574c-.068-.176-.15-.442-.172-.928-.023-.528-.029-.686-.029-2.02s.006-1.495.03-2.02c.02-.488.103-.752.171-.928a1.52 1.52 0 01.375-.574c.162-.166.358-.293.575-.373.175-.069.441-.15.928-.172.527-.024.685-.03 2.02-.03 1.336 0 1.494.006 2.02.03.488.021.752.103.927.172.217.08.414.207.575.373.166.162.293.357.373.574.068.176.15.441.172.928.023.527.029.686.029 2.02s-.006 1.49-.03 2.018z"/><path d="M10.018 7.432a2.57 2.57 0 10.002 5.14 2.57 2.57 0 00-.002-5.14zm0 4.235a1.667 1.667 0 11.001-3.333 1.667 1.667 0 010 3.333zm3.271-4.337a.6.6 0 11-1.2 0 .6.6 0 011.2 0z"/></g><defs><clipPath id="clip0"><path fill="#fff" transform="translate(5 5)" d="M0 0h10v10H0z"/></clipPath></defs></svg>