<svg width="15" height="16" fill="none" xmlns="http://www.w3.org/2000/svg"><g clip-path="url(#clip0)"><path d="M4.147.332a.319.319 0 00-.461.008.345.345 0 000 .468l6.941 7.173-6.942 7.173a.345.345 0 00-.008.476.319.319 0 00.47 0l7.171-7.41a.345.345 0 000-.477L4.147.332z" fill="#F44336"/><path d="M3.916 15.73a.331.331 0 01-.327-.337c0-.09.035-.176.096-.24l6.942-7.172L3.685.81a.345.345 0 010-.477.319.319 0 01.462 0l7.172 7.41a.345.345 0 010 .477l-7.172 7.41a.32.32 0 01-.23.1z" fill="#fff"/></g><defs><clipPath id="clip0"><path fill="#fff" transform="translate(0 .233)" d="M0 0h15v15.5H0z"/></clipPath></defs></svg>