<svg width="20" height="20" fill="none" xmlns="http://www.w3.org/2000/svg"><circle cx="10" cy="10" r="9.5" fill="#E0E0E0" stroke="#000"/><g clip-path="url(#clip0)"><path d="M8.924 11.325l-.166 2.327c.237 0 .34-.101.462-.224l1.11-1.06 2.3 1.684c.42.235.718.111.832-.388l1.509-7.072c.134-.624-.225-.867-.636-.714l-8.87 3.396c-.606.235-.597.572-.104.725l2.268.706 5.268-3.297c.248-.164.473-.073.288.091l-4.261 3.827z" fill="#000"/></g><defs><clipPath id="clip0"><path fill="#fff" transform="translate(5 5)" d="M0 0h10v10H0z"/></clipPath></defs></svg>