<svg width="10" height="10" fill="none" xmlns="http://www.w3.org/2000/svg"><g clip-path="url(#clip0)" fill="#000"><path d="M8.554 4.196c.012-1.41-1.189-2.702-2.677-2.88a2.165 2.165 0 01-.096-.015 1.392 1.392 0 00-.226-.025c-.305 0-.387.214-.408.342a.395.395 0 00.059.31c.1.138.279.162.421.182.042.005.082.01.115.018 1.337.299 1.787.768 2.007 2.094.005.032.008.072.01.115.01.158.03.488.384.488a.63.63 0 00.094-.008c.33-.05.32-.351.315-.496-.001-.04-.003-.08 0-.105a.068.068 0 00.002-.02z"/><path d="M5.468.798c.04.003.077.005.108.01 2.196.338 3.205 1.378 3.485 3.59.005.038.006.084.006.132.003.173.009.533.395.54h.012a.379.379 0 00.287-.108c.12-.126.111-.313.105-.463-.002-.037-.004-.071-.003-.102C9.89 2.134 7.932.083 5.67.007h-.027a.19.19 0 01-.027.002c-.022 0-.05-.002-.08-.004C5.502.003 5.462 0 5.421 0c-.36 0-.429.256-.438.408-.02.353.321.378.485.39zm3.487 6.46a6.941 6.941 0 01-.14-.11c-.24-.192-.495-.37-.741-.542A56.295 56.295 0 017.92 6.5c-.315-.222-.6-.33-.868-.33-.361 0-.676.2-.936.594-.116.174-.255.26-.428.26a.848.848 0 01-.344-.087C4.324 6.474 3.597 5.765 3.18 4.83c-.201-.453-.136-.748.218-.989.202-.136.576-.39.55-.877C3.918 2.41 2.698.747 2.184.558a1.001 1.001 0 00-.68-.002C.913.755.489 1.104.278 1.565c-.205.445-.195.968.026 1.513.641 1.573 1.542 2.945 2.679 4.077 1.112 1.108 2.48 2.016 4.063 2.698.143.061.293.095.402.12l.093.021a.156.156 0 00.04.006h.012c.745 0 1.64-.68 1.914-1.457.24-.68-.199-1.015-.552-1.285zM5.798 2.595c-.128.003-.393.01-.486.28-.044.127-.039.236.015.326.08.132.23.173.368.195.5.08.757.357.808.87.024.239.185.406.392.406.015 0 .03 0 .046-.003.25-.03.37-.212.359-.543.004-.345-.177-.737-.484-1.05-.309-.313-.68-.489-1.018-.48z"/></g><defs><clipPath id="clip0"><path fill="#fff" d="M0 0h10v10H0z"/></clipPath></defs></svg>