<svg width="20" height="20" fill="none" xmlns="http://www.w3.org/2000/svg"><circle cx="10" cy="10" r="9.5" fill="#E0E0E0" stroke="#000"/><g clip-path="url(#clip0)" fill="#000"><path d="M13.554 9.196c.012-1.41-1.189-2.702-2.677-2.88a2.156 2.156 0 01-.096-.015 1.393 1.393 0 00-.226-.025c-.305 0-.387.214-.408.342a.394.394 0 00.059.31c.1.138.279.162.421.182.042.005.082.01.115.018 1.337.299 1.787.768 2.007 2.094.005.032.008.072.01.115.01.158.03.488.384.488a.63.63 0 00.094-.008c.33-.05.32-.351.315-.496-.001-.04-.003-.08 0-.105a.14.14 0 00.002-.02z"/><path d="M10.468 5.798c.04.003.077.005.108.01 2.196.338 3.205 1.378 3.485 3.59.005.038.006.084.006.132.003.173.009.533.395.54h.012a.379.379 0 00.287-.108c.12-.126.111-.313.105-.463a1.804 1.804 0 01-.003-.102c.028-2.263-1.931-4.314-4.192-4.39h-.027a.188.188 0 01-.027.002c-.023 0-.05-.002-.08-.004-.035-.002-.076-.005-.116-.005-.36 0-.429.256-.438.408-.02.353.321.378.485.39zm3.487 6.46a7.04 7.04 0 01-.14-.11c-.24-.192-.495-.37-.741-.542a41.858 41.858 0 01-.153-.107c-.316-.222-.6-.33-.869-.33-.361 0-.676.2-.936.594-.115.174-.255.26-.428.26a.85.85 0 01-.344-.087c-1.02-.463-1.747-1.172-2.164-2.107-.201-.453-.136-.748.219-.989.2-.136.575-.39.549-.877-.03-.553-1.25-2.216-1.764-2.405a1.001 1.001 0 00-.68-.002c-.591.199-1.015.548-1.226 1.009-.205.445-.195.968.026 1.513.641 1.573 1.542 2.945 2.679 4.077 1.112 1.108 2.48 2.016 4.063 2.698.143.061.293.095.402.12l.093.021a.156.156 0 00.04.006h.012c.745 0 1.64-.68 1.914-1.457.24-.68-.199-1.015-.552-1.285zm-3.157-4.663c-.128.003-.393.01-.486.28-.044.127-.039.236.015.326.08.132.23.173.368.195.5.08.757.357.808.87.024.239.185.406.392.406.015 0 .03 0 .046-.003.25-.03.37-.212.359-.543.004-.345-.177-.737-.484-1.05-.309-.313-.68-.489-1.018-.48z"/></g><defs><clipPath id="clip0"><path fill="#fff" transform="translate(5 5)" d="M0 0h10v10H0z"/></clipPath></defs></svg>