<svg width="15" height="16" fill="none" xmlns="http://www.w3.org/2000/svg"><g clip-path="url(#clip0)"><path d="M4.147.102a.314.314 0 00-.461.008.357.357 0 000 .478l6.941 7.32-6.942 7.32a.357.357 0 00-.008.486.314.314 0 00.47 0l7.171-7.563a.357.357 0 000-.486L4.147.102z" fill="#F44336"/><path d="M3.916 15.814a.335.335 0 01-.327-.343c0-.092.035-.18.096-.244l6.942-7.32L3.685.587a.358.358 0 010-.486.315.315 0 01.462 0l7.172 7.563a.357.357 0 010 .486l-7.172 7.563a.318.318 0 01-.23.101z" fill="#000"/></g><defs><clipPath id="clip0"><path fill="#fff" d="M0 0h15v15.818H0z"/></clipPath></defs></svg>