<svg width="30" height="32" fill="none" xmlns="http://www.w3.org/2000/svg"><path fill="#fff" stroke="#767676" d="M.5.5h29v30.636H.5z"/><g clip-path="url(#clip0)"><path d="M12.147 8.102a.314.314 0 00-.461.008.357.357 0 000 .478l6.941 7.32-6.942 7.32a.357.357 0 00-.008.486c.125.137.332.14.461.009l.008-.009 7.172-7.563a.357.357 0 000-.486l-7.171-7.563z" fill="#F44336"/><path d="M11.916 23.814a.335.335 0 01-.327-.343c0-.092.035-.18.096-.244l6.942-7.32-6.942-7.32a.358.358 0 010-.486.315.315 0 01.462 0l7.172 7.563a.357.357 0 010 .486l-7.172 7.563a.318.318 0 01-.23.101z" fill="#000"/></g><defs><clipPath id="clip0"><path fill="#fff" transform="translate(8 8)" d="M0 0h15v15.818H0z"/></clipPath></defs></svg>