<svg width="15" height="15" fill="none" xmlns="http://www.w3.org/2000/svg"><g clip-path="url(#clip0)"><path d="M4.147.096a.326.326 0 00-.461.46l6.941 6.942-6.942 6.942a.326.326 0 00.453.469l.008-.008 7.172-7.172a.326.326 0 000-.461L4.147.096z" fill="#F44336"/><path d="M3.916 14.996a.326.326 0 01-.23-.557l6.941-6.94L3.685.556a.326.326 0 11.462-.462l7.172 7.172a.326.326 0 010 .461L4.147 14.9a.326.326 0 01-.23.096z" fill="#fff"/></g><defs><clipPath id="clip0"><path fill="#fff" d="M0 0h15v15H0z"/></clipPath></defs></svg>